# xmcd
#
# Track frame offsets:
#	182
#	20220
#	36777
#
# Disc length: 772 seconds
#
# Revision: 1
# Processed by: cddbd v1.5.2PL0 Copyright (c) Steve Scherf et al.
# Submitted via: EZCDAudioConverter 7.1.5.1
#
DISCID=20030203
DTITLE=Elastic Band
DYEAR=2000
DGENRE=Disco
TTITLE0=Everybody's Talkin'
TTITLE1=To be or not to be
TTITLE2=Everybody's Talkin' (Remix)
EXTD=
EXTT0=
EXTT1=
EXTT2=
PLAYORDER=
